<svg width="323" height="268" viewBox="0 0 323 268" fill="none" xmlns="http://www.w3.org/2000/svg">
<path d="M114.416 167.624C112.904 166.892 111.176 166.8 109.6 167.368C108.024 167.936 106.724 169.118 105.977 170.664C105.83 170.98 105.708 171.309 105.613 171.646L83.3061 173.027L80 185L110.361 179.686C111.742 179.984 113.179 179.801 114.449 179.165C115.719 178.528 116.75 177.474 117.381 176.167C117.733 175.42 117.939 174.608 117.989 173.777C118.038 172.947 117.929 172.115 117.667 171.329C117.406 170.543 116.998 169.817 116.466 169.194C115.934 168.571 115.289 168.063 114.568 167.698C114.517 167.673 114.467 167.648 114.416 167.624Z" fill="#FFB6B6"/>
<path d="M65.0949 110.824C63.6224 110.222 62.0374 109.945 60.4478 110.009C58.8581 110.074 57.301 110.479 55.8824 111.198C54.4638 111.917 53.217 112.933 52.2267 114.175C51.2364 115.418 50.5259 116.859 50.1435 118.401L44 143.163L45.1556 186.483C45.1556 186.483 77.2228 192.624 82.6061 188.676C87.9895 184.729 87.484 181.79 87.9894 184.729C88.4949 187.668 90.8055 188.901 90.8376 187.732C90.8696 186.562 91.131 186.762 92.4725 186.41C93.814 186.058 99.7349 183.88 99.7349 183.88L100 171.529C100 171.529 90.2117 167.825 87.8369 168.93C85.4622 170.035 88.3424 171.869 85.4622 170.035C82.582 168.202 82.2672 162.414 81.7748 167.63C81.2823 172.846 79.8406 173.817 77.6813 171.498C75.5219 169.178 65.5174 170.66 65.5174 170.66L71.8837 122.505C72.2039 120.083 71.7114 117.624 70.4833 115.51C69.2551 113.397 67.3604 111.749 65.0949 110.824Z" fill="#F8B1FE"/>
<path d="M280.668 240L281 230.731L246.489 225L246 238.681L280.668 240Z" fill="#FFB6B6"/>
<path d="M274.341 242.357L274 227.795L280.416 228.025L290.775 214.564C291.287 213.899 292.004 213.41 292.822 213.168C293.64 212.927 294.517 212.946 295.323 213.222C296.13 213.497 296.824 214.016 297.305 214.702C297.786 215.388 298.029 216.206 297.997 217.035L297.339 234.332L290.879 237.087L297.182 238.478L296.934 245L274.341 242.357Z" fill="#141414"/>
<path d="M83 261L194.193 247.961C194.193 247.961 242.21 250.758 253.476 243.367L265.356 241.855L266 224.257C266 224.257 258.735 224.311 254.558 222.348C250.382 220.386 253.284 217.984 249.302 220.345C245.32 222.707 245.74 222.991 242.661 221.905C239.582 220.82 98.3891 215 98.3891 215L83 261Z" fill="#141414"/>
<path d="M229.624 253L236 246.619L214.411 219L205 228.417L229.624 253Z" fill="#FFB6B6"/>
<path d="M223 251L232.885 240L237.394 244.443L254.299 241.381C255.134 241.23 255.997 241.346 256.76 241.712C257.523 242.078 258.148 242.676 258.543 243.417C258.938 244.158 259.082 245.004 258.955 245.832C258.828 246.66 258.435 247.426 257.835 248.019L245.32 260.378L238.702 258.114L242.32 263.34L237.601 268L223 251Z" fill="#141414"/>
<path d="M39 199.995L40.1062 225.589C41.4085 255.72 74.746 273.957 100.597 258.225C101.073 257.935 101.551 257.634 102.031 257.324C102.031 257.324 111.831 254.704 111.533 250.556C111.236 246.407 113.63 244.388 115.749 245.519C117.867 246.651 145.608 207.465 145.608 207.465C145.608 207.465 203.243 236.081 215.958 242.817L229.374 239.179C229.374 239.179 234.424 241.553 232.605 238.12C230.786 234.687 230.46 236.331 229.901 232.59C229.342 228.85 227.913 224.213 227.046 224.408C226.179 224.603 155.744 175.533 155.744 175.533C155.744 175.533 144.269 163.974 130.035 171.606C129.739 172.727 129.992 172.766 129.992 172.766L82.9718 210.902L76.3279 198.343L39 199.995Z" fill="#141414"/>
<path d="M71.0371 105.474L50.621 96L44.5087 106.531C44.5087 106.531 28.0928 129.727 27.8546 146.461C27.6165 163.194 30.5299 168.171 30.5299 168.171C30.5299 168.171 23.4519 173.41 26.9909 176.613C30.5299 179.816 38.3647 181.198 32.3472 182.586C26.3297 183.975 27.8546 198.031 34.575 200.527C41.2953 203.022 77.387 203 77.387 203C77.0626 201.91 77.0387 200.754 77.3179 199.652C77.597 198.55 78.169 197.542 78.9745 196.733C81.7724 193.956 84.2926 195.949 81.7724 191.625C79.2523 187.302 75.0521 189.797 78.4123 183.975C81.7724 178.152 81.7712 176.412 81.7712 176.412C81.7712 176.412 88.6212 163.504 78.3035 149.5C77.6745 148.646 78.2033 148.614 78.2033 148.614L69.8718 120.969L71.0371 105.474Z" fill="#F8B1FE"/>
<path d="M38.0696 65.3391C38.2413 69.5419 35.5394 75.4961 34.2089 79.0865C32.7865 82.9251 38.9518 88.0204 42.898 89.1362C43.1034 87.8064 43.7801 86.59 44.8093 85.7006C44.5248 86.968 44.5001 88.2781 44.7364 89.5549L78.0975 97C84.0992 90.1869 90.1338 80.3921 88.8175 68.5791C89.1327 66.3359 88.765 64.0515 87.7605 62.0124C86.756 59.9734 85.1595 58.2707 83.1713 57.1179L66.3057 47.3509C59.1319 45.75 50.0978 44.7834 44.9162 49.1348C42.6011 51.1539 40.7825 53.6606 39.5967 56.467C38.4109 59.2735 37.8888 62.3067 38.0696 65.3391Z" fill="#141414"/>
<path d="M68 94C78.4934 94 87 85.4934 87 75C87 64.5066 78.4934 56 68 56C57.5066 56 49 64.5066 49 75C49 85.4934 57.5066 94 68 94Z" fill="#FFB6B6"/>
<path d="M45.9067 64.0717L45 68.1159L60.8511 71.7802C60.8652 70.9623 61.0456 70.1561 61.381 69.4124C61.7165 68.6686 62.1997 68.0033 62.8003 67.4581C62.4584 69.0439 62.4975 70.6899 62.9141 72.2571C71.4627 77.1282 79.1677 78.8539 86.0767 77.6117C87.0128 77.8281 87.9951 77.658 88.8077 77.1389C89.6202 76.6198 90.1965 75.7942 90.4096 74.8437C93.1894 62.4443 85.9066 49.7713 73.7557 46.6936C70.8022 45.9437 67.7309 45.8002 64.722 46.2713C61.7131 46.7425 58.8272 47.8189 56.2333 49.4375C53.6395 51.0561 51.39 53.1843 49.6167 55.6972C47.8435 58.2102 46.5821 61.0573 45.9067 64.0717Z" fill="#141414"/>
<path d="M54.9213 37.7974C57.0059 37.334 59.212 37.446 61.0969 36L59.8608 38.9058C63.2879 37.9442 66.9414 38.3179 70.115 39.9547C71.0587 40.388 71.8634 41.0857 72.4365 41.9673C72.7444 42.4999 72.9317 43.0964 72.9845 43.7129C73.0374 44.3294 72.9544 44.9503 72.7418 45.5296C72.5392 46.0266 72.2376 46.4749 71.8563 46.8457C71.475 47.2166 71.0223 47.5019 70.5272 47.6835C69.6497 47.9536 68.7305 48.0522 67.8174 47.974C63.9699 47.8823 60.1225 47.7904 56.2751 47.6986C54.8088 47.7919 53.3436 47.5003 52.0182 46.8514C51.3135 46.4058 50.7513 45.7591 50.4004 44.9908C50.0496 44.2225 49.9255 43.366 50.0432 42.5265C50.4102 39.8849 52.8367 38.2608 54.9213 37.7974Z" fill="#141414"/>
<path d="M158.45 187.762C158.405 187.708 158.353 187.66 158.295 187.62C158.153 187.455 157.98 187.32 157.785 187.222L156.394 186.48L147.155 176.262C146.62 175.984 145.998 175.925 145.42 176.096L145.396 176.103L141.439 177.323L138.035 178.375L133.28 179.843L100.895 189.834L79.608 196.4C79.0325 196.581 78.5515 196.981 78.2686 197.512C77.9857 198.043 77.9234 198.664 78.0953 199.24C78.1954 199.558 78.3609 199.851 78.5813 200.101L79.2588 200.852L80.6796 202.429L83.9714 209.225L84.8847 210.24C85.1758 210.564 85.5532 210.798 85.9729 210.915C86.3926 211.032 86.8371 211.028 87.2544 210.903L157.384 191.475C157.748 191.357 158.078 191.152 158.344 190.878C158.61 190.603 158.805 190.268 158.91 189.901C159.015 189.535 159.028 189.148 158.948 188.775C158.868 188.401 158.697 188.054 158.45 187.762Z" fill="#F9F8E9"/>
<path d="M154.29 86.0202L152.931 86.2413C152.558 86.3034 152.225 86.5108 152.004 86.8184L151.406 87.659L146.004 101.217C145.784 101.527 145.696 101.912 145.759 102.288L146.392 106.151L144 175.103C144.06 175.459 144.251 175.781 144.535 176.003L155.022 190.085L155.266 190.281L155.795 190.696C156.065 190.906 156.401 191.013 156.743 190.999L157.635 190.956C157.837 190.946 158.035 190.893 158.216 190.801C158.396 190.709 158.555 190.579 158.682 190.42C158.81 190.263 158.903 190.08 158.954 189.884C159.005 189.687 159.014 189.482 158.979 189.282L155.937 87.1999C155.875 86.825 155.668 86.4899 155.36 86.2685C155.053 86.047 154.67 85.9573 154.297 86.0191L154.29 86.0202Z" fill="#F9F8E9"/>
<path d="M152.128 91L146.988 105.683L145 164.331L153 171L152.128 91Z" fill="#FFB57C"/>
<path d="M115.321 179.624C113.77 178.892 111.997 178.8 110.379 179.368C108.762 179.936 107.428 181.118 106.66 182.664C106.509 182.98 106.385 183.309 106.287 183.646L83.3931 185.027L80 197L111.16 191.686C112.577 191.984 114.052 191.801 115.356 191.165C116.659 190.528 117.717 189.474 118.365 188.167C119.094 186.657 119.2 184.917 118.659 183.329C118.117 181.741 116.973 180.435 115.477 179.698C115.426 179.673 115.374 179.648 115.321 179.624Z" fill="#FFB6B6"/>
<path d="M65.4716 122.824C63.9728 122.222 62.3596 121.945 60.7415 122.009C59.1234 122.074 57.5386 122.479 56.0946 123.198C54.6507 123.917 53.3816 124.933 52.3736 126.175C51.3656 127.418 50.6425 128.859 50.2532 130.401L44 155.163L45.1763 198.483C45.1763 198.483 77.8162 204.624 83.2956 200.676C88.775 196.729 88.2605 193.79 88.775 196.729C89.2895 199.668 91.6413 200.901 91.674 199.732C91.7066 198.562 91.9727 198.762 93.3381 198.41C94.7036 198.058 100.73 195.88 100.73 195.88L101 183.529C101 183.529 91.0369 179.825 88.6198 180.93C86.2026 182.035 89.1342 183.869 86.2026 182.035C83.271 180.202 82.9506 174.414 82.4493 179.63C81.9481 184.846 80.4807 185.817 78.2827 183.498C76.0848 181.178 65.9017 182.66 65.9017 182.66L72.3816 134.505C72.7076 132.083 72.2063 129.624 70.9562 127.51C69.7062 125.397 67.7775 123.749 65.4716 122.824Z" fill="#F8B1FE"/>
</svg>
