<svg width="350" height="308" viewBox="0 0 350 308" fill="none" xmlns="http://www.w3.org/2000/svg">
<path d="M0.482084 105.454C1.88186 101.768 5.78554 99.5915 9.76002 100.01C11.4164 100.184 13.0712 100.322 14.7351 100.23C56.2336 97.9411 107.633 120.228 162.35 150.749C112.26 112.733 66.4158 79.1032 12.4968 113.663C8.64546 116.132 3.18884 115.26 0.948524 111.422C0.0485045 109.88 -0.276621 108.033 0.260105 106.127C0.323436 105.902 0.397316 105.678 0.482084 105.454Z" fill="#F8B1FE"/>
<path d="M277.256 14.269C280.677 16.3145 282.084 20.2046 280.944 23.6725L280.815 24.0638C279.673 27.5451 277.184 30.4699 273.887 32.3951C226.701 59.9487 281.333 95.2106 194.003 152.128C236.292 109.683 271.076 11.3897 276.36 13.7986C276.664 13.9374 276.964 14.094 277.256 14.269Z" fill="#F8B1FE"/>
<path d="M349.583 229.731C347.824 233.159 343.873 234.932 340.066 234.282L339.637 234.208C335.816 233.557 332.424 231.587 329.995 228.745C295.226 188.069 264.382 243.136 193.764 168.558C243.715 202.906 351.897 223.633 349.975 228.84C349.864 229.14 349.734 229.438 349.583 229.731Z" fill="#F8B1FE"/>
<path d="M286.033 227.19C284.222 228.132 281.301 228 278.944 226.978L278.678 226.862C276.311 225.837 274.479 224.398 273.443 222.825C258.624 200.303 227.853 214.918 196.199 172.226C222.148 195.439 288.722 225.347 286.46 226.932C286.33 227.023 286.188 227.109 286.033 227.19Z" fill="#F8B1FE"/>
<path d="M300.313 137.359C299.865 139.256 297.824 141.219 295.445 142.197L295.176 142.308C292.789 143.29 290.426 143.623 288.484 143.307C260.682 138.786 251.951 170.084 196.89 164.016C232.621 161.179 300.625 134.249 300.391 136.888C300.377 137.04 300.351 137.197 300.313 137.359Z" fill="#F8B1FE"/>
<path d="M22.0789 254.999C20.0831 251.686 20.7879 247.632 23.5308 245.072L23.8402 244.783C26.592 242.213 30.2535 240.727 34.128 240.479C89.5829 236.936 59.0024 181.741 164.6 169.955C106.014 188.802 26.0939 260.263 22.6346 255.809C22.4353 255.552 22.2496 255.282 22.0789 254.999Z" fill="#F8B1FE"/>
<path d="M245.094 254.405C243.043 255.688 240.41 255.432 238.659 253.937L238.461 253.768C236.703 252.268 235.606 250.199 235.296 247.96C230.868 215.906 196.585 235.742 184.915 174.896C199.299 208.188 248.321 251.875 245.593 254.052C245.436 254.177 245.27 254.295 245.094 254.405Z" fill="#F8B1FE"/>
<path d="M182.986 307.125C179.844 307.149 177.199 305.168 176.406 302.449L176.317 302.142C175.52 299.413 175.849 296.513 177.149 293.944C195.763 257.176 144.429 255.872 176.252 183.956C167.441 228.503 188.301 306.547 183.78 307.076C183.52 307.106 183.255 307.123 182.986 307.125Z" fill="#FFB57C"/>
<path d="M69.2556 256.878C67.2313 254.624 67.1708 251.449 68.8974 249.142L69.0921 248.882C70.8239 246.565 73.4152 244.953 76.354 244.253C118.416 234.243 86.7388 196.331 166.085 173.44C123.89 195.494 73.1203 260.349 69.8025 257.42C69.6114 257.251 69.4288 257.07 69.2556 256.878Z" fill="#FFB57C"/>
<path d="M94.776 223.963C93.4957 222.841 93.4613 221.153 94.5584 219.857L94.6822 219.711C95.7826 218.41 97.427 217.451 99.2904 216.965C125.961 210.006 105.931 191.044 156.249 175.781C129.478 189.159 97.2213 225.661 95.122 224.23C95.0011 224.148 94.8855 224.059 94.776 223.963Z" fill="#FFB57C"/>
<path d="M132.076 247.95C130.457 247.321 129.792 245.752 130.334 244.178L130.395 244C130.938 242.42 132.118 240.98 133.68 239.91C156.043 224.603 130.185 213.453 171.575 182.578C151.525 203.927 135.001 248.734 132.5 248.086C132.356 248.049 132.214 248.003 132.076 247.95Z" fill="#F8B1FE"/>
<path d="M22.9547 141.605L27.0221 153.347H40.1847L29.536 160.603L33.6035 172.345L22.9547 165.088L12.3059 172.345L16.3733 160.603L5.72461 153.347H18.8872L22.9547 141.605Z" fill="#FFB57C"/>
<path d="M204.343 0.875L208.41 12.6168H221.573L210.924 19.8737L214.992 31.6155L204.343 24.3587L193.694 31.6155L197.762 19.8737L187.113 12.6168H200.275L204.343 0.875Z" fill="#F8B1FE"/>
<path d="M300.635 126.901L304.703 138.643H317.865L307.217 145.9L311.284 157.642L300.635 150.385L289.987 157.642L294.054 145.9L283.405 138.643H296.568L300.635 126.901Z" fill="#FFB57C"/>
<path d="M105.811 255.029L109.879 266.771H123.041L112.392 274.027L116.46 285.769L105.811 278.512L95.1623 285.769L99.2298 274.027L88.5811 266.771H101.744L105.811 255.029Z" fill="#FFB57C"/>
<path d="M179.71 126.901L183.778 138.643H196.94L186.291 145.9L190.359 157.642L179.71 150.385L169.061 157.642L173.129 145.9L162.48 138.643H175.643L179.71 126.901Z" fill="#FFB57C"/>
<path d="M281.333 0.875L285.4 12.6168H298.563L287.914 19.8737L291.981 31.6155L281.333 24.3587L270.684 31.6155L274.751 19.8737L264.103 12.6168H277.265L281.333 0.875Z" fill="#F8B1FE"/>
<path d="M16.056 232.938L21.2141 244.297L34.3252 243.205L24.4021 251.317L29.5602 262.675L18.2692 256.33L8.34602 264.441L11.291 252.408L0 246.063L13.111 244.971L16.056 232.938Z" fill="#F8B1FE"/>
<path d="M128.658 16.0016C131.032 14.9052 133.701 15.6448 135.211 17.6313L135.382 17.8554C136.899 19.8485 137.62 22.37 137.494 24.9489C135.683 61.8594 175.042 45.3602 174.978 115.985C166.752 75.9718 124.821 18.3016 128.072 16.3144C128.26 16.1999 128.455 16.0954 128.658 16.0016Z" fill="#FFB57C"/>
<path d="M94.3332 70.7114C95.3857 69.4789 97.1126 69.309 98.5231 70.179L98.6823 70.2771C100.098 71.1496 101.206 72.5345 101.845 74.1535C110.998 97.3257 128.908 77.9274 148.361 121.468C132.624 98.7373 92.7783 73.0286 94.0854 71.0415C94.1606 70.9271 94.2432 70.8168 94.3332 70.7114Z" fill="#F8B1FE"/>
<path d="M64.0365 138.066C64.1807 136.493 65.5154 135.451 67.2034 135.439L67.3939 135.437C69.0881 135.424 70.8294 135.998 72.3206 137.01C93.6639 151.497 97.0517 126.034 139.03 152.08C112.476 141.393 64.1175 140.803 64.0261 138.47C64.0208 138.335 64.0241 138.201 64.0365 138.066Z" fill="#F8B1FE"/>
</svg>
